<svg width="25" height="24" viewBox="0 0 25 24" fill="none" xmlns="http://www.w3.org/2000/svg">
<path d="M21.75 8.72009C21.75 9.88009 21.31 11.0501 20.42 11.9401L18.94 13.4201L12.57 19.7901C12.54 19.8201 12.53 19.8301 12.5 19.8501C12.47 19.8301 12.46 19.8201 12.43 19.7901L4.58 11.9401C3.69 11.0501 3.25 9.89009 3.25 8.72009C3.25 7.55009 3.69 6.3801 4.58 5.4901C6.36 3.7201 9.24 3.7201 11.02 5.4901L12.49 6.97009L13.97 5.4901C15.75 3.7201 18.62 3.7201 20.4 5.4901C21.31 6.3801 21.75 7.54009 21.75 8.72009Z" stroke="#261F0F" stroke-width="1.5" stroke-linecap="round" stroke-linejoin="round"/>
</svg>
