<svg width="25" height="24" viewBox="0 0 25 24" fill="none" xmlns="http://www.w3.org/2000/svg">
<g clip-path="url(#clip0_11_518)">
<path d="M17.417 8.00003V6.03337C17.417 5.42053 17.2963 4.8137 17.0618 4.24751C16.8272 3.68132 16.4835 3.16687 16.0502 2.73353C15.6168 2.30019 15.1024 1.95645 14.5362 1.72193C13.97 1.48741 13.3632 1.3667 12.7503 1.3667C12.1375 1.3667 11.5307 1.48741 10.9645 1.72193C10.3983 1.95645 9.88383 2.30019 9.45049 2.73353C9.01715 3.16687 8.67341 3.68132 8.43889 4.24751C8.20437 4.8137 8.08366 5.42053 8.08366 6.03337V10.7C8.08366 10.8768 8.1539 11.0464 8.27892 11.1714C8.40395 11.2965 8.57351 11.3667 8.75033 11.3667C8.92714 11.3667 9.09671 11.2965 9.22173 11.1714C9.34675 11.0464 9.41699 10.8768 9.41699 10.7V9.33337H14.7503V8.00003H9.41699V6.03337C9.41699 5.14931 9.76818 4.30146 10.3933 3.67634C11.0184 3.05122 11.8663 2.70003 12.7503 2.70003C13.6344 2.70003 14.4822 3.05122 15.1073 3.67634C15.7325 4.30146 16.0837 5.14931 16.0837 6.03337V10.6667C16.0837 10.8435 16.1539 11.0131 16.2789 11.1381C16.4039 11.2631 16.5735 11.3334 16.7503 11.3334C16.9271 11.3334 17.0967 11.2631 17.2217 11.1381C17.3468 11.0131 17.417 10.8435 17.417 10.6667V9.33337H20.7503V21.3334H4.75033V9.33337H6.75033V8.00003H3.41699V21.3934C3.41699 21.7311 3.55115 22.055 3.78994 22.2938C4.02874 22.5325 4.35262 22.6667 4.69033 22.6667H20.8103C21.148 22.6667 21.4719 22.5325 21.7107 22.2938C21.9495 22.055 22.0837 21.7311 22.0837 21.3934V8.00003H17.417Z" fill="#261F0F"/>
</g>
<defs>
<clipPath id="clip0_11_518">
<rect width="24" height="24" fill="white" transform="translate(0.75)"/>
</clipPath>
</defs>
</svg>
