<svg width="25" height="24" viewBox="0 0 25 24" fill="none" xmlns="http://www.w3.org/2000/svg">
<path d="M12.25 12.25C11.5083 12.25 10.7833 12.0301 10.1666 11.618C9.54993 11.206 9.06928 10.6203 8.78545 9.93506C8.50162 9.24984 8.42736 8.49584 8.57205 7.76841C8.71675 7.04098 9.0739 6.3728 9.59835 5.84835C10.1228 5.3239 10.791 4.96675 11.5184 4.82206C12.2458 4.67736 12.9998 4.75162 13.6851 5.03545C14.3703 5.31928 14.956 5.79993 15.368 6.41661C15.7801 7.0333 16 7.75832 16 8.5C16 9.49456 15.6049 10.4484 14.9017 11.1517C14.1984 11.8549 13.2446 12.25 12.25 12.25ZM12.25 6.25C11.805 6.25 11.37 6.38196 11 6.62919C10.63 6.87643 10.3416 7.22783 10.1713 7.63896C10.001 8.0501 9.95642 8.5025 10.0432 8.93895C10.13 9.37541 10.3443 9.77632 10.659 10.091C10.9737 10.4057 11.3746 10.62 11.811 10.7068C12.2475 10.7936 12.6999 10.749 13.111 10.5787C13.5222 10.4084 13.8736 10.12 14.1208 9.75003C14.368 9.38002 14.5 8.94501 14.5 8.5C14.5 7.90326 14.2629 7.33097 13.841 6.90901C13.419 6.48705 12.8467 6.25 12.25 6.25ZM19.25 19.25C19.0519 19.2474 18.8626 19.1676 18.7225 19.0275C18.5824 18.8874 18.5026 18.6981 18.5 18.5C18.5 16.55 17.44 15.25 12.25 15.25C7.06 15.25 6 16.55 6 18.5C6 18.6989 5.92098 18.8897 5.78033 19.0303C5.63968 19.171 5.44891 19.25 5.25 19.25C5.05109 19.25 4.86032 19.171 4.71967 19.0303C4.57902 18.8897 4.5 18.6989 4.5 18.5C4.5 13.75 9.93 13.75 12.25 13.75C14.57 13.75 20 13.75 20 18.5C19.9974 18.6981 19.9176 18.8874 19.7775 19.0275C19.6374 19.1676 19.4481 19.2474 19.25 19.25Z" fill="#261F0F"/>
</svg>
